<svg width="244" height="124" viewBox="0 0 244 124" fill="none" xmlns="http://www.w3.org/2000/svg">
<g id="Kone_logo" clip-path="url(#clip0_117_132)">
<path id="path1681" d="M0 123.996H56.7584V0H0V123.996ZM62.4219 123.996H119.176V0H62.4219V123.996ZM124.816 123.996H181.57V0H124.816V123.996ZM244 0.00404067H187.238V124H244V0.00404067Z" fill="#9EA7AC"/>
<path id="path1693" d="M52.1016 85.4468L33.8145 60.9603L50.9289 39.187H36.184L20.6866 59.3686V39.187H8.16296V85.4468H20.6866V63.5288L36.7763 85.4468H52.1016ZM102.624 61.9893C102.624 69.8433 97.4531 75.2294 90.7971 75.2294C84.1291 75.2294 78.9739 69.8433 78.9739 61.9893C78.9739 54.1554 84.1291 48.7533 90.7971 48.7533C97.4531 48.7533 102.624 54.1554 102.624 61.9893ZM115.148 61.9893C115.148 47.668 104.293 37.8525 90.7971 37.8525C77.3049 37.8525 66.4543 47.668 66.4543 61.9893C66.4543 76.3146 77.3049 86.1462 90.7971 86.1462C104.293 86.1462 115.148 76.3146 115.148 61.9893ZM167.752 85.4468H174.08V39.187H162.461V61.7803L139.487 39.187H132.326V85.4468H143.905V61.9732L167.752 85.4468ZM210.37 74.948V67.102H230.706L230.709 57.2021H210.369V49.3803H233.523V39.187H197.997V85.4468H233.524V74.948H210.37Z" fill="white"/>
</g>
<defs>
<clipPath id="clip0_117_132">
<rect width="244" height="124" fill="white"/>
</clipPath>
</defs>
</svg>
