<svg width="67" height="48" viewBox="0 0 67 48" fill="none" xmlns="http://www.w3.org/2000/svg">
<g id="Kontur">
<g id="1963222405536">
<path id="Vector" d="M44.3217 48H0V0H44.3217V16.4239H42.2671V2.22512H2.0546V45.7747H42.2671V31.4701H44.3217V48Z" fill="#F41707"/>
<path id="Vector_2" d="M9.05542 19.0703H11.1139V23.3202L14.0602 19.0703H16.5305L13.1468 23.571L16.8007 28.8241H14.189L11.1139 24.1841V28.8241H9.05542V19.0703Z" fill="#F41707"/>
<path id="Vector_3" d="M22.1699 26.8126C23.8303 26.8126 24.6915 25.5419 24.6915 23.9466C24.6915 22.2161 23.5806 21.0805 22.1699 21.0805C20.7218 21.0805 19.6483 22.2161 19.6483 23.9466C19.6483 25.5689 20.7719 26.8126 22.1699 26.8126ZM22.1699 19.0527C24.8287 19.0527 26.8137 20.9318 26.8137 23.9466C26.8137 26.8126 24.8287 28.8406 22.1699 28.8406C19.5112 28.8406 17.5262 26.9613 17.5262 23.9466C17.5262 21.2022 19.3862 19.0527 22.1699 19.0527Z" fill="#F41707"/>
<path id="Vector_4" d="M35.4722 28.8234L31.2009 22.971V28.8234H29.2709V19.0723H30.9176L35.1893 24.9498L35.1865 19.0726H37.1164L37.1191 28.8234H35.4722Z" fill="#F41707"/>
<path id="Vector_5" d="M39.5968 19.0703H47.059V21.1605H44.3571V28.8241H42.2985V21.1605H39.5968V19.0703Z" fill="#F41707"/>
<path id="Vector_6" d="M57.0467 24.6284C57.0467 27.6105 55.297 28.8227 53.3671 28.8227C51.0513 28.8227 49.4429 27.3873 49.4429 24.5311V19.0742H51.5015V24.0573C51.5015 25.5761 51.9262 26.7326 53.3671 26.7326C54.6151 26.7326 54.9882 25.7433 54.9882 24.1826V19.0742H57.0467V24.6284Z" fill="#F41707"/>
<path id="Vector_7" d="M61.5791 21.1924V23.3519H62.3252C63.1102 23.3519 63.7276 23.0455 63.7276 22.2234C63.7276 21.68 63.4718 21.1901 62.481 21.1901C62.1723 21.1901 62.0037 21.1784 61.5791 21.1924ZM59.5205 28.8227V19.0742C60.0222 19.0742 62.3252 19.0742 62.5826 19.0742C65.04 19.0742 65.9149 20.3982 65.9149 22.1956C65.9149 24.007 64.8857 24.7454 64.3967 25.0102L67 28.8227H64.5039L62.3381 25.4421H61.5791V28.8227H59.5205Z" fill="#F41707"/>
</g>
</g>
</svg>
